<svg xmlns="http://www.w3.org/2000/svg" xmlns:xlink="http://www.w3.org/1999/xlink" xmlns:inkscape="http://www.inkscape.org/namespaces/inkscape" version="1.1" width="1920" height="1080" viewBox="0 0 1920 1080">
<defs>
<clipPath id="clip_0">
<path transform="matrix(1,0,0,-1,0,1080)" d="M0 1080H1920V0H0Z"/>
</clipPath>
</defs>
<g inkscape:groupmode="layer" inkscape:label="Layer 1">
<path transform="matrix(1,0,0,-1,148.4004,663.75)" d="M0 0V355.863H273.506V291.808H73.714V210.467H205.383V148.954H73.714V64.056H275.54V0Z" fill="#ffffffff"/>
<path transform="matrix(1,0,0,-1,476.2969,663.75)" d="M0 0V355.863H73.714V213.009H237.411V355.863H311.125V0H237.411V145.396H73.714V0Z" fill="#ffffffff"/>
<path transform="matrix(1,0,0,-1,953.6602,511.2373)" d="M0 0H102.183L51.854 131.161ZM-135.736-152.513 10.676 203.35H96.083L240.461-152.513H160.646L124.552-59.48H-22.877L-58.972-152.513Z" fill="#ffffffff"/>
<path transform="matrix(1,0,0,-1,1255.6328,663.75)" d="M0 0V290.791H-119.977V355.863H193.184V290.791H73.715V0Z" fill="#ffffffff"/>
<path transform="matrix(1,0,0,-1,1526.0869,511.2373)" d="M0 0H102.183L51.854 131.161ZM-135.736-152.513 10.676 203.35H96.083L240.461-152.513H160.646L124.552-59.48H-22.877L-58.972-152.513Z" fill="#ffffffff"/>
<g clip-path="url(#clip_0)">
<path transform="matrix(1,0,0,-1,154.7861,791.9844)" d="M0 0V53.296H-14.797V63.829H0V73.359C0 80.047 1.859 85.167 5.581 88.722 9.299 92.273 14.629 94.051 21.569 94.051 23.325 94.051 24.975 93.967 26.522 93.8 28.068 93.632 29.469 93.34 30.723 92.923V82.013C29.219 82.43 27.88 82.722 26.71 82.891 25.539 83.057 24.285 83.142 22.948 83.142 19.353 83.142 16.678 82.346 14.923 80.759 13.167 79.17 12.29 76.661 12.29 73.234V63.829H30.723V53.296H12.29V0Z" fill="#ffffffff"/>
<path transform="matrix(1,0,0,-1,222.3774,782.2031)" d="M0 0C3.929 0 7.481 .981 10.659 2.947 13.835 4.91 16.344 7.565 18.184 10.91 20.021 14.253 20.942 18.015 20.942 22.196 20.942 26.291 20.021 29.99 18.184 33.294 16.344 36.596 13.835 39.251 10.659 41.257 7.481 43.264 3.929 44.267 0 44.267-3.846 44.267-7.379 43.264-10.596 41.257-13.815 39.251-16.345 36.596-18.183 33.294-20.023 29.99-20.942 26.291-20.942 22.196-20.942 18.015-20.023 14.253-18.183 10.91-16.345 7.565-13.815 4.91-10.596 2.947-7.379 .981-3.846 0 0 0M0-11.035C-6.187-11.035-11.809-9.593-16.866-6.709-21.925-3.824-25.938 .146-28.905 5.204-31.873 10.262-33.356 15.883-33.356 22.07-33.356 28.341-31.895 33.962-28.967 38.938-26.042 43.91-22.029 47.882-16.929 50.851-11.831 53.816-6.187 55.302 0 55.302 6.186 55.302 11.808 53.816 16.867 50.851 21.924 47.882 25.915 43.91 28.843 38.938 31.768 33.962 33.231 28.341 33.231 22.07 33.231 15.883 31.768 10.262 28.843 5.204 25.915 .146 21.924-3.824 16.867-6.709 11.808-9.593 6.186-11.035 0-11.035" fill="#ffffffff"/>
<path transform="matrix(1,0,0,-1,267.521,791.9844)" d="M0 0V63.955H12.54V55.679C14.546 58.688 17.033 61.027 20.001 62.701 22.968 64.372 26.334 65.209 30.096 65.209 32.687 65.209 34.818 64.874 36.492 64.205V52.919C35.32 53.421 34.109 53.775 32.855 53.985 31.601 54.193 30.304 54.299 28.967 54.299 25.372 54.299 22.153 53.315 19.312 51.352 16.468 49.387 14.211 46.524 12.54 42.762V0Z" fill="#ffffffff"/>
<path transform="matrix(1,0,0,-1,384.0171,793.36428)" d="M0 0C-6.521 0-12.562 1.15-18.12 3.449-23.681 5.747-28.572 8.967-32.792 13.104-37.015 17.243-40.275 22.05-42.574 27.526-44.874 33.001-46.022 38.916-46.022 45.271-46.022 51.707-44.874 57.664-42.574 63.14-40.275 68.614-37.015 73.401-32.792 77.499-28.572 81.594-23.66 84.791-18.058 87.092-12.458 89.391-6.438 90.54 0 90.54 4.597 90.54 9.092 89.933 13.481 88.722 17.87 87.509 21.924 85.775 25.645 83.518 29.364 81.261 32.646 78.502 35.489 75.241L26.585 66.338C23.325 70.267 19.353 73.255 14.672 75.304 9.989 77.352 5.099 78.376 0 78.376-4.683 78.376-8.987 77.54-12.916 75.868-16.847 74.195-20.295 71.855-23.262 68.846-26.23 65.836-28.529 62.325-30.159 58.313-31.789 54.299-32.604 49.951-32.604 45.271-32.604 40.588-31.789 36.241-30.159 32.229-28.529 28.216-26.23 24.704-23.262 21.695-20.295 18.686-16.784 16.344-12.728 14.673-8.674 12.999-4.348 12.164 .251 12.164 5.35 12.164 10.199 13.209 14.797 15.3 19.395 17.388 23.282 20.272 26.46 23.952L35.113 15.174C32.27 12.08 28.988 9.384 25.269 7.086 21.548 4.785 17.535 3.029 13.23 1.818 8.923 .607 4.515 0 0 0" fill="#ffffffff"/>
<path transform="matrix(1,0,0,-1,459.0054,782.2031)" d="M0 0C3.929 0 7.481 .981 10.659 2.947 13.835 4.91 16.344 7.565 18.184 10.91 20.021 14.253 20.942 18.015 20.942 22.196 20.942 26.291 20.021 29.99 18.184 33.294 16.344 36.596 13.835 39.251 10.659 41.257 7.481 43.264 3.929 44.267 0 44.267-3.846 44.267-7.379 43.264-10.596 41.257-13.815 39.251-16.345 36.596-18.183 33.294-20.023 29.99-20.942 26.291-20.942 22.196-20.942 18.015-20.023 14.253-18.183 10.91-16.345 7.565-13.815 4.91-10.596 2.947-7.379 .981-3.846 0 0 0M0-11.035C-6.187-11.035-11.809-9.593-16.866-6.709-21.925-3.824-25.938 .146-28.905 5.204-31.873 10.262-33.356 15.883-33.356 22.07-33.356 28.341-31.895 33.962-28.967 38.938-26.042 43.91-22.029 47.882-16.929 50.851-11.831 53.816-6.187 55.302 0 55.302 6.186 55.302 11.808 53.816 16.867 50.851 21.924 47.882 25.915 43.91 28.843 38.938 31.768 33.962 33.231 28.341 33.231 22.07 33.231 15.883 31.768 10.262 28.843 5.204 25.915 .146 21.924-3.824 16.867-6.709 11.808-9.593 6.186-11.035 0-11.035" fill="#ffffffff"/>
<path transform="matrix(1,0,0,-1,504.1489,791.9844)" d="M0 0V63.829H12.54V57.309C17.472 62.491 23.867 65.083 31.727 65.083 36.658 65.083 40.984 64.037 44.706 61.948 48.424 59.857 51.352 56.933 53.483 53.17 55.615 49.408 56.681 45.061 56.681 40.129V0H44.141V37.997C44.141 43.013 42.719 46.963 39.877 49.847 37.034 52.731 33.147 54.174 28.215 54.174 24.871 54.174 21.882 53.44 19.249 51.979 16.615 50.516 14.378 48.446 12.54 45.771V0Z" fill="#ffffffff"/>
<path transform="matrix(1,0,0,-1,597.1948,793.2383)" d="M0 0C-5.518 0-10.681 .815-15.487 2.445-20.295 4.075-24.453 6.437-27.964 9.53L-21.193 17.807C-17.85 15.13-14.442 13.124-10.973 11.788-7.504 10.449-3.972 9.781-.376 9.781 4.139 9.781 7.816 10.638 10.659 12.352 13.5 14.064 14.923 16.343 14.923 19.187 14.923 21.525 14.086 23.365 12.415 24.704 10.742 26.04 8.151 26.961 4.64 27.463L-6.897 29.093C-13.335 30.012-18.12 31.978-21.255 34.987-24.391 37.996-25.958 42.01-25.958 47.025-25.958 50.787-24.914 54.13-22.823 57.058-20.734 59.983-17.807 62.24-14.045 63.829-10.283 65.416-5.937 66.212-1.003 66.212 3.678 66.212 8.151 65.563 12.415 64.269 16.679 62.971 20.774 60.902 24.704 58.061L18.434 49.784C14.839 52.124 11.412 53.838 8.151 54.926 4.891 56.012 1.546 56.556-1.881 56.556-5.727 56.556-8.821 55.741-11.161 54.11-13.502 52.48-14.672 50.368-14.672 47.778-14.672 45.353-13.837 43.534-12.164 42.323-10.492 41.11-7.859 40.211-4.264 39.627L7.399 37.871C13.751 37.034 18.56 35.112 21.82 32.103 25.081 29.093 26.711 25.08 26.711 20.064 26.711 16.302 25.52 12.895 23.137 9.844 20.754 6.791 17.576 4.389 13.606 2.634 9.635 .878 5.099 0 0 0" fill="#ffffffff"/>
<path transform="matrix(1,0,0,-1,658.2646,793.2383)" d="M0 0C-4.934 0-9.279 1.046-13.042 3.135-16.804 5.224-19.75 8.171-21.882 11.976-24.014 15.779-25.08 20.105-25.08 24.955V65.083H-12.54V27.087C-12.54 22.153-11.098 18.225-8.213 15.299-5.329 12.371-1.463 10.91 3.386 10.91 6.729 10.91 9.76 11.641 12.478 13.104 15.193 14.566 17.388 16.635 19.061 19.312V65.083H31.602V1.254H19.061V7.774C14.127 2.59 7.775 0 0 0" fill="#ffffffff"/>
<path transform="matrix(1,0,0,-1,704.6621,791.9844)" d="M0 0V87.781L12.54 90.164V0Z" fill="#ffffffff"/>
<path transform="matrix(1,0,0,-1,759.21,793.1133)" d="M0 0C-6.104 0-10.785 1.421-14.045 4.264-17.306 7.105-18.936 11.327-18.936 16.93V54.425H-32.479V64.958H-18.936V81.135L-6.521 84.271V64.958H12.415V54.425H-6.521V19.688C-6.521 16.51-5.79 14.233-4.326 12.854-2.865 11.475-.46 10.785 2.884 10.785 4.64 10.785 6.208 10.91 7.587 11.161 8.966 11.412 10.449 11.829 12.039 12.415V1.756C10.365 1.17 8.421 .733 6.208 .439 3.991 .147 1.922 0 0 0" fill="#ffffffff"/>
<path transform="matrix(1,0,0,-1,789.4307,773.2998)" d="M0 0C0-3.178 1.336-5.728 4.013-7.649 6.687-9.573 10.158-10.533 14.421-10.533 17.764-10.533 20.858-10.032 23.701-9.028 26.542-8.025 29.05-6.479 31.225-4.389V6.396C28.884 7.732 26.375 8.735 23.701 9.405 21.024 10.073 18.14 10.408 15.048 10.408 10.365 10.408 6.687 9.446 4.013 7.524 1.336 5.601 0 3.092 0 0M11.663-19.813C6.979-19.813 2.884-18.998-.627-17.368-4.138-15.737-6.897-13.461-8.903-10.533-10.91-7.608-11.913-4.223-11.913-.376-11.913 5.644-9.593 10.365-4.953 13.794-.313 17.222 5.976 18.936 13.919 18.936 20.19 18.936 25.958 17.808 31.225 15.55V22.196C31.225 26.793 29.928 30.222 27.337 32.479 24.745 34.736 20.899 35.865 15.801 35.865 12.874 35.865 9.844 35.426 6.709 34.549 3.574 33.671 .042 32.311-3.887 30.473L-8.652 39.878C-3.887 42.135 .605 43.785 4.828 44.831 9.049 45.876 13.292 46.398 17.556 46.398 25.833 46.398 32.248 44.434 36.806 40.505 41.361 36.574 43.64 30.975 43.64 23.701V-18.685H31.225V-13.167C28.466-15.424 25.457-17.098 22.196-18.183 18.936-19.269 15.424-19.813 11.663-19.813" fill="#ffffffff"/>
<path transform="matrix(1,0,0,-1,847.4912,791.9844)" d="M0 0V63.829H12.54V57.309C17.472 62.491 23.867 65.083 31.727 65.083 36.658 65.083 40.984 64.037 44.706 61.948 48.424 59.857 51.352 56.933 53.483 53.17 55.615 49.408 56.681 45.061 56.681 40.129V0H44.141V37.997C44.141 43.013 42.719 46.963 39.877 49.847 37.034 52.731 33.147 54.174 28.215 54.174 24.871 54.174 21.882 53.44 19.249 51.979 16.615 50.516 14.378 48.446 12.54 45.771V0Z" fill="#ffffffff"/>
<path transform="matrix(1,0,0,-1,948.6885,793.1133)" d="M0 0C-6.188 0-11.788 1.462-16.804 4.39-21.82 7.314-25.792 11.286-28.717 16.303-31.645 21.318-33.106 26.877-33.106 32.98-33.106 39.251-31.623 44.872-28.654 49.848-25.688 54.82-21.716 58.792-16.741 61.761-11.768 64.727-6.188 66.212 0 66.212 4.765 66.212 9.383 65.313 13.855 63.517 18.328 61.718 22.195 59.105 25.455 55.679L17.682 47.025C15.256 49.7 12.539 51.707 9.53 53.045 6.52 54.382 3.386 55.052 .125 55.052-3.805 55.052-7.336 54.09-10.471 52.167-13.606 50.243-16.073 47.609-17.87 44.267-19.668 40.922-20.566 37.201-20.566 33.106-20.566 29.009-19.647 25.269-17.807 21.883-15.969 18.497-13.461 15.842-10.283 13.92-7.107 11.996-3.554 11.035 .376 11.035 3.637 11.035 6.688 11.683 9.53 12.979 12.371 14.274 15.047 16.177 17.555 18.686L25.205 10.534C21.861 7.189 17.994 4.597 13.605 2.759 9.217 .921 4.681 0 0 0" fill="#ffffffff"/>
<path transform="matrix(1,0,0,-1,988.0635,818.8203)" d="M0 0C-1.254 0-2.467 .062-3.637 .188-4.809 .313-5.769 .419-6.521 .502V11.662C-5.017 11.329-3.179 11.161-1.003 11.161 4.765 11.161 9.028 14.296 11.787 20.565L14.421 26.585-11.161 90.665H2.633L21.318 42.135 41.884 90.665H55.428L24.578 18.936C22.572 14.339 20.419 10.659 18.12 7.9 15.82 5.142 13.229 3.135 10.346 1.881 7.461 .627 4.013 0 0 0" fill="#ffffffff"/>
<path transform="matrix(1,0,0,-1,1086.126,773.2998)" d="M0 0C0-3.178 1.336-5.728 4.013-7.649 6.687-9.573 10.157-10.533 14.421-10.533 17.764-10.533 20.857-10.032 23.7-9.028 26.542-8.025 29.05-6.479 31.225-4.389V6.396C28.883 7.732 26.375 8.735 23.7 9.405 21.024 10.073 18.14 10.408 15.048 10.408 10.365 10.408 6.687 9.446 4.013 7.524 1.336 5.601 0 3.092 0 0M11.662-19.813C6.979-19.813 2.884-18.998-.627-17.368-4.139-15.737-6.897-13.461-8.904-10.533-10.91-7.608-11.913-4.223-11.913-.376-11.913 5.644-9.594 10.365-4.954 13.794-.313 17.222 5.976 18.936 13.919 18.936 20.189 18.936 25.958 17.808 31.225 15.55V22.196C31.225 26.793 29.928 30.222 27.337 32.479 24.745 34.736 20.898 35.865 15.8 35.865 12.873 35.865 9.844 35.426 6.709 34.549 3.573 33.671 .041 32.311-3.888 30.473L-8.653 39.878C-3.888 42.135 .605 43.785 4.827 44.831 9.048 45.876 13.292 46.398 17.556 46.398 25.832 46.398 32.247 44.434 36.805 40.505 41.36 36.574 43.64 30.975 43.64 23.701V-18.685H31.225V-13.167C28.466-15.424 25.456-17.098 22.195-18.183 18.936-19.269 15.424-19.813 11.662-19.813" fill="#ffffffff"/>
<path transform="matrix(1,0,0,-1,1144.1865,791.9844)" d="M0 0V63.829H12.54V57.309C17.473 62.491 23.867 65.083 31.727 65.083 36.658 65.083 40.985 64.037 44.706 61.948 48.425 59.857 51.353 56.933 53.484 53.17 55.616 49.408 56.682 45.061 56.682 40.129V0H44.142V37.997C44.142 43.013 42.719 46.963 39.878 49.847 37.035 52.731 33.147 54.174 28.216 54.174 24.871 54.174 21.883 53.44 19.249 51.979 16.616 50.516 14.378 48.446 12.54 45.771V0Z" fill="#ffffffff"/>
<path transform="matrix(1,0,0,-1,1246.2617,782.0781)" d="M0 0C3.678 0 7.042 .669 10.095 2.007 13.146 3.343 15.716 5.225 17.807 7.65V36.492C15.801 38.916 13.229 40.797 10.095 42.136 6.96 43.472 3.594 44.142 0 44.142-4.013 44.142-7.671 43.201-10.973 41.32-14.276 39.439-16.866 36.825-18.748 33.482-20.629 30.138-21.569 26.376-21.569 22.196-21.569 18.016-20.629 14.253-18.748 10.91-16.866 7.565-14.276 4.911-10.973 2.947-7.671 .982-4.013 0 0 0M-1.631-10.909C-7.567-10.909-13.022-9.447-17.995-6.521-22.971-3.595-26.879 .355-29.721 5.33-32.563 10.303-33.984 15.927-33.984 22.196-33.984 28.298-32.542 33.837-29.657 38.813-26.773 43.785-22.845 47.716-17.87 50.6-12.896 53.484-7.398 54.927-1.38 54.927 2.132 54.927 5.518 54.403 8.778 53.358 12.038 52.313 15.048 50.745 17.807 48.656V77.875L30.347 80.258V-9.906H17.933V-3.762C12.497-8.526 5.976-10.909-1.631-10.909" fill="#ffffffff"/>
<path transform="matrix(1,0,0,-1,1343.1963,791.9844)" d="M0 0V76.119H-30.849V87.781H44.016V76.119H13.167V0Z" fill="#ffffffff"/>
<path transform="matrix(1,0,0,-1,1390.8486,791.9844)" d="M0 0V63.955H12.54V55.679C14.547 58.688 17.033 61.027 20.002 62.701 22.969 64.372 26.335 65.209 30.097 65.209 32.687 65.209 34.818 64.874 36.492 64.205V52.919C35.32 53.421 34.109 53.775 32.855 53.985 31.602 54.193 30.305 54.299 28.968 54.299 25.372 54.299 22.153 53.315 19.312 51.352 16.469 49.387 14.212 46.524 12.54 42.762V0Z" fill="#ffffffff"/>
<path transform="matrix(1,0,0,-1,1443.3906,773.2998)" d="M0 0C0-3.178 1.336-5.728 4.013-7.649 6.687-9.573 10.157-10.533 14.421-10.533 17.764-10.533 20.857-10.032 23.7-9.028 26.542-8.025 29.05-6.479 31.225-4.389V6.396C28.883 7.732 26.375 8.735 23.7 9.405 21.024 10.073 18.14 10.408 15.048 10.408 10.365 10.408 6.687 9.446 4.013 7.524 1.336 5.601 0 3.092 0 0M11.662-19.813C6.979-19.813 2.884-18.998-.627-17.368-4.139-15.737-6.897-13.461-8.904-10.533-10.91-7.608-11.913-4.223-11.913-.376-11.913 5.644-9.594 10.365-4.954 13.794-.313 17.222 5.976 18.936 13.919 18.936 20.189 18.936 25.958 17.808 31.225 15.55V22.196C31.225 26.793 29.928 30.222 27.337 32.479 24.745 34.736 20.898 35.865 15.8 35.865 12.873 35.865 9.844 35.426 6.709 34.549 3.573 33.671 .041 32.311-3.888 30.473L-8.653 39.878C-3.888 42.135 .605 43.785 4.827 44.831 9.048 45.876 13.292 46.398 17.556 46.398 25.832 46.398 32.247 44.434 36.805 40.505 41.36 36.574 43.64 30.975 43.64 23.701V-18.685H31.225V-13.167C28.466-15.424 25.456-17.098 22.195-18.183 18.936-19.269 15.424-19.813 11.662-19.813" fill="#ffffffff"/>
<path transform="matrix(1,0,0,-1,0,1080)" d="M1501.451 351.845H1513.9911V288.016H1501.451ZM1507.722 362.253C1505.631 362.253 1503.834 363.006 1502.329 364.511 1500.824 366.016 1500.072 367.854 1500.072 370.028 1500.072 372.117 1500.824 373.916 1502.329 375.421 1503.834 376.925 1505.631 377.678 1507.722 377.678 1509.895 377.678 1511.734 376.925 1513.239 375.421 1514.744 373.916 1515.496 372.076 1515.496 369.902 1515.496 367.812 1514.744 366.016 1513.239 364.511 1511.734 363.006 1509.895 362.253 1507.722 362.253" fill="#ffffffff"/>
<path transform="matrix(1,0,0,-1,1528.7871,791.9844)" d="M0 0V63.829H12.54V57.309C17.473 62.491 23.867 65.083 31.727 65.083 36.658 65.083 40.985 64.037 44.706 61.948 48.425 59.857 51.353 56.933 53.484 53.17 55.616 49.408 56.682 45.061 56.682 40.129V0H44.142V37.997C44.142 43.013 42.719 46.963 39.878 49.847 37.035 52.731 33.147 54.174 28.216 54.174 24.871 54.174 21.883 53.44 19.249 51.979 16.616 50.516 14.378 48.446 12.54 45.771V0Z" fill="#ffffffff"/>
<path transform="matrix(1,0,0,-1,0,1080)" d="M1599.888 351.845H1612.428V288.016H1599.888ZM1606.158 362.253C1604.067 362.253 1602.271 363.006 1600.766 364.511 1599.261 366.016 1598.509 367.854 1598.509 370.028 1598.509 372.117 1599.261 373.916 1600.766 375.421 1602.271 376.925 1604.067 377.678 1606.158 377.678 1608.331 377.678 1610.171 376.925 1611.676 375.421 1613.181 373.916 1613.933 372.076 1613.933 369.902 1613.933 367.812 1613.181 366.016 1611.676 364.511 1610.171 363.006 1608.331 362.253 1606.158 362.253" fill="#ffffffff"/>
<path transform="matrix(1,0,0,-1,1627.2236,791.9844)" d="M0 0V63.829H12.54V57.309C17.473 62.491 23.867 65.083 31.727 65.083 36.658 65.083 40.985 64.037 44.706 61.948 48.425 59.857 51.353 56.933 53.484 53.17 55.616 49.408 56.682 45.061 56.682 40.129V0H44.142V37.997C44.142 43.013 42.719 46.963 39.878 49.847 37.035 52.731 33.147 54.174 28.216 54.174 24.871 54.174 21.883 53.44 19.249 51.979 16.616 50.516 14.378 48.446 12.54 45.771V0Z" fill="#ffffffff"/>
<path transform="matrix(1,0,0,-1,1729.0479,781.7012)" d="M0 0C3.594 0 6.917 .668 9.97 2.006 13.021 3.343 15.55 5.183 17.557 7.523V36.366C15.632 38.623 13.124 40.42 10.032 41.759 6.938 43.095 3.594 43.765 0 43.765-4.013 43.765-7.63 42.824-10.848 40.943-14.066 39.063-16.615 36.47-18.497 33.168-20.378 29.865-21.318 26.124-21.318 21.945-21.318 17.848-20.378 14.148-18.497 10.847-16.615 7.543-14.045 4.91-10.784 2.946-7.524 .981-3.931 0 0 0M.752-37.119C-3.847-37.119-8.36-36.574-12.791-35.489-17.223-34.401-21.236-32.855-24.829-30.849L-19.938-21.067C-16.261-22.905-12.771-24.266-9.468-25.144-6.166-26.021-2.884-26.46 .376-26.46 6.061-26.46 10.346-25.206 13.229-22.698 16.114-20.189 17.557-16.428 17.557-11.412V-4.139C12.038-8.57 5.643-10.785-1.63-10.785-7.567-10.785-12.96-9.323-17.807-6.396-22.656-3.471-26.522 .479-29.406 5.455-32.291 10.428-33.733 15.926-33.733 21.945-33.733 28.047-32.271 33.586-29.344 38.561-26.419 43.533-22.51 47.464-17.619 50.349-12.729 53.232-7.273 54.675-1.254 54.675 2.257 54.675 5.621 54.13 8.841 53.045 12.058 51.957 15.048 50.327 17.807 48.154V53.546H30.097V-11.286C30.097-19.646 27.588-26.041 22.572-30.473 17.557-34.903 10.283-37.119 .752-37.119" fill="#ffffffff"/>
<path transform="matrix(1,0,0,-1,1719.3086,250.50098)" d="M0 0H6.749C8.203 0 9.627 .049 11.017 .148 12.405 .248 13.629 .529 14.688 .992 15.746 1.455 16.606 2.183 17.269 3.176 17.929 4.168 18.261 5.523 18.261 7.245 18.261 8.699 17.963 9.875 17.368 10.768 16.772 11.661 16.011 12.339 15.085 12.802 14.158 13.265 13.133 13.562 12.009 13.696 10.883 13.827 9.759 13.894 8.634 13.894H0ZM-6.55 19.253H9.726C19.782 19.253 24.812 15.15 24.812 6.947 24.812 3.042 23.72 .181 21.536-1.638 19.353-3.458 16.639-4.533 13.398-4.863L25.804-23.918H18.757L7.046-5.359H0V-23.918H-6.55ZM-22.826-2.382C-22.826-6.882-22.032-11.05-20.444-14.887-18.856-18.725-16.707-22.049-13.993-24.861-11.281-27.674-8.073-29.89-4.367-31.51-.662-33.132 3.308-33.942 7.543-33.942 11.776-33.942 15.73-33.132 19.402-31.51 23.074-29.89 26.283-27.674 29.029-24.861 31.773-22.049 33.941-18.725 35.529-14.887 37.117-11.05 37.911-6.882 37.911-2.382 37.911 2.05 37.117 6.203 35.529 10.073 33.941 13.944 31.773 17.284 29.029 20.097 26.283 22.908 23.074 25.124 19.402 26.746 15.73 28.367 11.776 29.178 7.543 29.178 3.308 29.178-.662 28.367-4.367 26.746-8.073 25.124-11.281 22.908-13.993 20.097-16.707 17.284-18.856 13.944-20.444 10.073-22.032 6.203-22.826 2.05-22.826-2.382M-29.376-2.382C-29.376 2.844-28.401 7.724-26.448 12.256-24.498 16.788-21.834 20.692-18.46 23.967-15.085 27.243-11.165 29.823-6.699 31.708-2.233 33.594 2.514 34.537 7.543 34.537 12.57 34.537 17.318 33.594 21.784 31.708 26.25 29.823 30.17 27.243 33.545 23.967 36.919 20.692 39.581 16.788 41.534 12.256 43.484 7.724 44.462 2.844 44.462-2.382 44.462-7.676 43.484-12.572 41.534-17.07 39.581-21.57 36.919-25.457 33.545-28.731 30.17-32.006 26.25-34.587 21.784-36.473 17.318-38.358 12.57-39.301 7.543-39.301 2.514-39.301-2.233-38.358-6.699-36.473-11.165-34.587-15.085-32.006-18.46-28.731-21.834-25.457-24.498-21.57-26.448-17.07-28.401-12.572-29.376-7.676-29.376-2.382" fill="#ffffffff"/>
</g>
</g>
</svg>
